<svg viewBox="0 0 400 400" fill="none" xmlns="http://www.w3.org/2000/svg">
            <!-- Concentric layer boundaries -->
            <circle cx="200" cy="200" r="40" stroke="#CBD5E1" stroke-width="0.5" stroke-dasharray="4 4" opacity="0.5"/>
            <circle cx="200" cy="200" r="110" stroke="#CBD5E1" stroke-width="0.5" stroke-dasharray="4 4" opacity="0.4"/>
            <circle cx="200" cy="200" r="180" stroke="#CBD5E1" stroke-width="0.5" stroke-dasharray="4 4" opacity="0.3"/>

            <!-- Anchor -->
            <circle cx="200" cy="200" r="7" fill="none" stroke="#0055A8" stroke-width="2"/>
            <circle cx="200" cy="200" r="2.5" fill="#0055A8"/>

            <!-- L1 nodes + connections -->
            <line x1="200" y1="193" x2="200" y2="100" stroke="#29B0C3" stroke-width="0.5" opacity="0.25"/>
            <circle cx="200" cy="95" r="4.5" fill="none" stroke="#29B0C3" stroke-width="1.5"/>

            <line x1="206" y1="195" x2="290" y2="140" stroke="#29B0C3" stroke-width="0.5" opacity="0.25"/>
            <circle cx="293" cy="137" r="4.5" fill="none" stroke="#29B0C3" stroke-width="1.5"/>

            <line x1="207" y1="203" x2="305" y2="230" stroke="#29B0C3" stroke-width="0.5" opacity="0.25"/>
            <circle cx="308" cy="232" r="4.5" fill="none" stroke="#29B0C3" stroke-width="1.5"/>

            <line x1="203" y1="207" x2="250" y2="300" stroke="#29B0C3" stroke-width="0.5" opacity="0.25"/>
            <circle cx="252" cy="303" r="4.5" fill="none" stroke="#29B0C3" stroke-width="1.5"/>

            <line x1="196" y1="207" x2="140" y2="295" stroke="#29B0C3" stroke-width="0.5" opacity="0.25"/>
            <circle cx="137" cy="298" r="4.5" fill="none" stroke="#29B0C3" stroke-width="1.5"/>

            <line x1="193" y1="200" x2="100" y2="190" stroke="#29B0C3" stroke-width="0.5" opacity="0.25"/>
            <circle cx="95" cy="189" r="4.5" fill="none" stroke="#29B0C3" stroke-width="1.5"/>

            <!-- L2 nodes: outer ring, smaller, Orange -->
            <!-- Cluster around L1 node at top -->
            <circle cx="175" cy="30" r="3" fill="none" stroke="#F25D00" stroke-width="1"/>
            <circle cx="205" cy="22" r="3" fill="none" stroke="#F25D00" stroke-width="1"/>
            <circle cx="235" cy="35" r="3" fill="none" stroke="#F25D00" stroke-width="1"/>

            <!-- Cluster around L1 at top-right -->
            <circle cx="350" cy="65" r="3" fill="none" stroke="#F25D00" stroke-width="1"/>
            <circle cx="370" cy="95" r="3" fill="none" stroke="#F25D00" stroke-width="1"/>
            <circle cx="355" cy="130" r="3" fill="none" stroke="#F25D00" stroke-width="1"/>

            <!-- Cluster around L1 at right -->
            <circle cx="380" cy="210" r="3" fill="none" stroke="#F25D00" stroke-width="1"/>
            <circle cx="385" cy="250" r="3" fill="none" stroke="#F25D00" stroke-width="1"/>

            <!-- Cluster around L1 at bottom-right -->
            <circle cx="320" cy="360" r="3" fill="none" stroke="#F25D00" stroke-width="1"/>
            <circle cx="285" cy="375" r="3" fill="none" stroke="#F25D00" stroke-width="1"/>
            <circle cx="250" cy="380" r="3" fill="none" stroke="#F25D00" stroke-width="1"/>

            <!-- Cluster around L1 at bottom-left -->
            <circle cx="100" cy="365" r="3" fill="none" stroke="#F25D00" stroke-width="1"/>
            <circle cx="70" cy="340" r="3" fill="none" stroke="#F25D00" stroke-width="1"/>
            <circle cx="120" cy="380" r="3" fill="none" stroke="#F25D00" stroke-width="1"/>

            <!-- Cluster around L1 at left -->
            <circle cx="30" cy="170" r="3" fill="none" stroke="#F25D00" stroke-width="1"/>
            <circle cx="25" cy="210" r="3" fill="none" stroke="#F25D00" stroke-width="1"/>
            <circle cx="45" cy="240" r="3" fill="none" stroke="#F25D00" stroke-width="1"/>

            <!-- Lateral discovery lines -->
            <line x1="350" y1="65" x2="370" y2="95" stroke="#CBD5E1" stroke-width="0.5" stroke-dasharray="3 3" opacity="0.3"/>
            <line x1="100" y1="365" x2="70" y2="340" stroke="#CBD5E1" stroke-width="0.5" stroke-dasharray="3 3" opacity="0.3"/>
            <line x1="30" y1="170" x2="175" y2="30" stroke="#CBD5E1" stroke-width="0.5" stroke-dasharray="3 3" opacity="0.15"/>
            <line x1="385" y1="250" x2="320" y2="360" stroke="#CBD5E1" stroke-width="0.5" stroke-dasharray="3 3" opacity="0.15"/>
          </svg>