<svg viewBox="0 0 2400 3100" preserveAspectRatio="none" xmlns="http://www.w3.org/2000/svg">
      <defs>
        <filter id="waveBlur">
          <feGaussianBlur stdDeviation="6"/>
        </filter>
      </defs>
      <g filter="url(#waveBlur)">
        <!-- Wave bands: replicating gen_wave.py parameters
             wave(y_base, amp, wl, thick, alpha, x_off, tilt)
             Each <path> is a sinusoidal band with variable thickness.
             Bands progress from top (faint, thin) to bottom (opaque, thick).
             Broad background fill waves layered behind. -->

        <!-- Broad background fills (low alpha, wide) -->
        <path d="M0,905 C200,835 400,765 600,745 C800,725 1000,785 1200,845 C1400,905 1600,855 1800,795 C2000,735 2200,815 2400,875 L2400,1265 C2200,1205 2000,1125 1800,1185 C1600,1245 1400,1295 1200,1235 C1000,1175 800,1115 600,1135 C400,1155 200,1225 0,1295 Z" fill="rgba(41,176,195,0.0424)"/>
        <path d="M0,1455 C200,1345 400,1235 600,1215 C800,1195 1000,1305 1200,1415 C1400,1525 1600,1455 1800,1345 C2000,1235 2200,1365 2400,1455 L2400,1925 C2200,1835 2000,1705 1800,1815 C1600,1925 1400,1995 1200,1885 C1000,1775 800,1665 600,1685 C400,1705 200,1825 0,1925 Z" fill="rgba(41,176,195,0.0545)"/>
        <path d="M0,2035 C200,1895 400,1755 600,1735 C800,1715 1000,1855 1200,1995 C1400,2135 1600,2035 1800,1895 C2000,1755 2200,1925 2400,2035 L2400,2595 C2200,2455 2000,2315 1800,2425 C1600,2535 1400,2645 1200,2535 C1000,2425 800,2255 600,2275 C400,2295 200,2455 0,2595 Z" fill="rgba(41,176,195,0.0665)"/>

        <!-- Primary wave bands: thin to thick, faint to opaque -->
        <!-- Band 1: y=26%, faint -->
        <path d="M0,726 C300,666 600,636 900,666 C1200,696 1500,756 1800,726 C2100,696 2400,656 2400,656 L2400,836 C2400,836 2100,876 1800,906 C1500,936 1200,876 900,846 C600,816 300,846 0,906 Z" fill="rgba(41,176,195,0.0484)"/>

        <!-- Band 2: y=32% -->
        <path d="M0,884 C300,804 600,754 900,794 C1200,834 1500,914 1800,874 C2100,834 2400,774 2400,774 L2400,1004 C2400,1004 2100,1064 1800,1104 C1500,1144 1200,1064 900,1024 C600,984 300,1034 0,1114 Z" fill="rgba(41,176,195,0.0665)"/>

        <!-- Band 3: y=38% -->
        <path d="M0,1038 C300,938 600,878 900,918 C1200,958 1500,1068 1800,1018 C2100,968 2400,888 2400,888 L2400,1158 C2400,1158 2100,1238 1800,1288 C1500,1338 1200,1228 900,1188 C600,1148 300,1208 0,1308 Z" fill="rgba(41,176,195,0.0847)"/>

        <!-- Band 4: y=45% -->
        <path d="M0,1215 C300,1095 600,1025 900,1075 C1200,1125 1500,1255 1800,1195 C2100,1135 2400,1035 2400,1035 L2400,1345 C2400,1345 2100,1445 1800,1505 C1500,1565 1200,1435 900,1385 C600,1335 300,1405 0,1525 Z" fill="rgba(41,176,195,0.1089)"/>

        <!-- Band 5: y=52% -->
        <path d="M0,1412 C300,1282 600,1202 900,1252 C1200,1302 1500,1442 1800,1382 C2100,1322 2400,1212 2400,1212 L2400,1542 C2400,1542 2100,1652 1800,1712 C1500,1772 1200,1632 900,1582 C600,1532 300,1612 0,1742 Z" fill="rgba(41,176,195,0.1331)"/>

        <!-- Band 6: y=60% -->
        <path d="M0,1620 C300,1470 600,1380 900,1440 C1200,1500 1500,1660 1800,1590 C2100,1520 2400,1400 2400,1400 L2400,1770 C2400,1770 2100,1890 1800,1960 C1500,2030 1200,1870 900,1810 C600,1750 300,1840 0,1990 Z" fill="rgba(41,176,195,0.1573)"/>

        <!-- Band 7: y=68% -->
        <path d="M0,1838 C300,1688 600,1598 900,1648 C1200,1698 1500,1838 1800,1778 C2100,1718 2400,1618 2400,1618 L2400,1948 C2400,1948 2100,2048 1800,2108 C1500,2168 1200,2038 900,1978 C600,1918 300,2008 0,2168 Z" fill="rgba(41,176,195,0.1513)"/>

        <!-- Band 8: y=76% -->
        <path d="M0,2056 C300,1876 600,1776 900,1836 C1200,1896 1500,2076 1800,1996 C2100,1916 2400,1796 2400,1796 L2400,2206 C2400,2206 2100,2326 1800,2396 C1500,2466 1200,2296 900,2236 C600,2176 300,2276 0,2456 Z" fill="rgba(41,176,195,0.1815)"/>

        <!-- Band 9: y=84% -->
        <path d="M0,2274 C300,2104 600,2004 900,2054 C1200,2104 1500,2274 1800,2204 C2100,2134 2400,2024 2400,2024 L2400,2394 C2400,2394 2100,2504 1800,2564 C1500,2624 1200,2464 900,2404 C600,2344 300,2444 0,2604 Z" fill="rgba(41,176,195,0.1694)"/>

        <!-- Band 10: y=91% -->
        <path d="M0,2531 C300,2391 600,2301 900,2341 C1200,2381 1500,2511 1800,2461 C2100,2411 2400,2331 2400,2331 L2400,2611 C2400,2611 2100,2691 1800,2731 C1500,2771 1200,2661 900,2611 C600,2561 300,2641 0,2781 Z" fill="rgba(41,176,195,0.1573)"/>
      </g>
    </svg>